# xmcd
#
# Track frame offsets:
#	150
#	16266
#	31972
#	46071
#	61981
#	86311
#	110639
#	135986
#	149178
#	165882
#	175812
#	188449
#
# Disc length: 2765 seconds
#
# Revision: 0
# Processed by: cddbd v1.5.2PL0 Copyright (c) Steve Scherf et al.
# Submitted via: audiograbber 1.83.01
#
DISCID=8f0acb0c
DTITLE=Cdpool - Street December 09 CD2
DYEAR=2009
DGENRE=R&B
TTITLE0=Mica Paris - Take It Back (Part II Ft Frizzle)
TTITLE1=Spoonface and Wah Syndicate Ft Janet K - So Good (Radio Edit)
TTITLE2=Jammer - Party Animal
TTITLE3=Ricochet - Swagger's Insane (Radio Edit)
TTITLE4=Digital Dubstar Ft Miss Fire - Can't Say No
TTITLE5=Kcat - Boys Don't Cry (Noizy Neighbour Pedro Back Door Dubstep Mix)
TTITLE6=All Good Funk Alliance Ft Rubber Johnson - Man With A Jam Plan (Origina
TTITLE6=l Mix)
TTITLE7=DJ Devastate Ft DJ Create, Silvia and Svard - Spinnin
TTITLE8=Fly Gypsy - 2 Step (Clean)
TTITLE9=Chima Anya Ft Soweto Kinch - New Day (Radio Edit)
TTITLE10=Nefew Ft Consequence and Chanj - Biko (Clean)
TTITLE11=Grasshopper - Messages
EXTD=
EXTT0=
EXTT1=
EXTT2=
EXTT3=
EXTT4=
EXTT5=
EXTT6=
EXTT7=
EXTT8=
EXTT9=
EXTT10=
EXTT11=
PLAYORDER=
